<?xml version="1.0" encoding="UTF-8" standalone="no"?>
<svg
   xmlns:dc="http://purl.org/dc/elements/1.1/"
   xmlns:cc="http://creativecommons.org/ns#"
   xmlns:rdf="http://www.w3.org/1999/02/22-rdf-syntax-ns#"
   xmlns:svg="http://www.w3.org/2000/svg"
   xmlns="http://www.w3.org/2000/svg"
   xmlns:sodipodi="http://sodipodi.sourceforge.net/DTD/sodipodi-0.dtd"
   xmlns:inkscape="http://www.inkscape.org/namespaces/inkscape"
   version="1.1"
   preserveAspectRatio="xMidYMid meet"
   viewBox="0 0 640 640"
   width="640"
   height="640"
   id="svg4224"
   sodipodi:docname="MeshedPotato.svg"
   enable-background="new"
   inkscape:version="0.92.4 5da689c313, 2019-01-14">
  <metadata
     id="metadata4228">
    <rdf:RDF>
      <cc:Work
         rdf:about="">
        <dc:format>image/svg+xml</dc:format>
        <dc:type
           rdf:resource="http://purl.org/dc/dcmitype/StillImage" />
        <dc:title />
      </cc:Work>
    </rdf:RDF>
  </metadata>
  <sodipodi:namedview
     pagecolor="#ffffff"
     bordercolor="#666666"
     borderopacity="1"
     objecttolerance="10"
     gridtolerance="10"
     guidetolerance="10"
     inkscape:pageopacity="0"
     inkscape:pageshadow="2"
     inkscape:window-width="1910"
     inkscape:window-height="1051"
     id="namedview4226"
     showgrid="false"
     inkscape:zoom="1"
     inkscape:cx="4.221708"
     inkscape:cy="416.2367"
     inkscape:window-x="5"
     inkscape:window-y="24"
     inkscape:window-maximized="1"
     inkscape:current-layer="svg4224"
     inkscape:snap-global="false" />
  <defs
     id="defs4170">
    <path
       d="M212.99 376.97C114.2 376.97 34 296.77 34 197.99C34 99.2 114.2 19 212.99 19C311.77 19 391.97 99.2 391.97 197.99C391.97 296.77 311.77 376.97 212.99 376.97Z"
       id="jdORjXagp" />
    <path
       d="M212.99 359.43C123.88 359.43 51.54 287.09 51.54 197.99C51.54 108.88 123.88 36.54 212.99 36.54C302.09 36.54 374.43 108.88 374.43 197.99C374.43 287.09 302.09 359.43 212.99 359.43Z"
       id="c2hf8wj4UU" />
    <path
       d="M212.99 311.03C150.6 311.03 99.94 260.38 99.94 197.99C99.94 135.6 150.6 84.94 212.99 84.94C275.38 84.94 326.03 135.6 326.03 197.99C326.03 260.38 275.38 311.03 212.99 311.03Z"
       id="cczayn5yZ" />
    <path
       d="M212.99 299.95C156.71 299.95 111.02 254.26 111.02 197.99C111.02 141.71 156.71 96.02 212.99 96.02C269.26 96.02 314.95 141.71 314.95 197.99C314.95 254.26 269.26 299.95 212.99 299.95Z"
       id="a1q1sbUh73" />
    <path
       d="M212.99 262.12C177.59 262.12 148.86 233.38 148.86 197.99C148.86 162.59 177.59 133.86 212.99 133.86C248.38 133.86 277.12 162.59 277.12 197.99C277.12 233.38 248.38 262.12 212.99 262.12Z"
       id="aJRJluduP" />
    <path
       d="M212.99 255.83C181.06 255.83 155.14 229.91 155.14 197.99C155.14 166.06 181.06 140.14 212.99 140.14C244.91 140.14 270.83 166.06 270.83 197.99C270.83 229.91 244.91 255.83 212.99 255.83Z"
       id="bhRDtUZdi" />
    <path
       d="M422.64 211.43L367.35 436.63L131.59 378.74L186.88 153.55L422.64 211.43Z"
       id="asHuM3rjh" />
    <path
       d="M375.66 397.13C354.59 393.75 340.44 402.88 333.86 414.33C313.5 416.56 290.97 410.9 283.11 445.52C244.1 433.03 244.41 481.67 221.8 446.87C198.71 466.98 182.02 489.21 176.68 509.11C162.04 563.64 190.81 603.86 280.3 605.49C369.8 607.12 448.96 628.28 518.71 556.94C588.46 485.6 604.25 362.52 559.29 320.12C524.22 287.06 472.67 330.11 416.29 356.7C414.39 384.87 385.14 372.96 375.66 397.13Z"
       id="a7vdtl4Q" />
    <path
       d="M186.85 196.68C190.58 194.42 220.39 176.37 224.12 174.11C250.79 220.53 277.2 268.35 303.35 317.55C345.16 293.4 386.41 327.37 427.11 419.48C425.31 420.48 410.91 428.51 409.11 429.51C419.45 445.01 420.24 455.2 411.48 460.08C398.34 467.4 391.4 412.6 373.88 422.36C356.36 432.12 401.75 465.5 380.82 477.16C359.9 488.82 357.06 431.1 338.36 442.16C319.65 453.22 360.87 488.28 344.33 497.5C327.79 506.72 320.57 451.43 304.78 460.87C289 470.3 325.84 507.8 312.7 515.13C303.94 520.01 296.22 514.53 289.52 498.71C287.62 499.77 272.45 508.22 270.55 509.28C215.64 422.97 213.92 366.11 265.39 338.7C239.76 293.46 213.58 246.12 186.85 196.68Z"
       id="dslelPyYl" />
    <path
       d="M415.73 356.97C475.11 362.98 492.3 382.71 467.3 416.16C456.05 416.69 444.7 429.72 448.36 452.39C434.02 453.05 416.96 469.4 414.23 486.51C399.5 483.11 377.98 489.88 369.13 512.57C349.79 511.27 328.62 523.6 323.64 541.9C296.67 528.69 266.68 546.08 265.73 557.7C224.65 554.35 209.67 518.36 220.8 449.72"
       id="diG0P5DFW" />
  </defs>
  <path
     style="fill:#800080;fill-opacity:1"
     d="M 212.99023 19 C 114.20023 19 34 99.200254 34 197.99023 C 34 269.31963 75.823607 330.95375 136.26367 359.70508 L 140.54492 342.26953 C 87.777205 315.70258 51.539064 261.04807 51.539062 197.99023 C 51.539062 108.88023 123.88023 36.539064 212.99023 36.539062 C 302.09023 36.539062 374.42969 108.88023 374.42969 197.99023 C 374.42969 198.52504 374.41536 199.05626 374.41016 199.58984 L 391.86328 203.875 C 391.92658 201.92039 391.9707 199.96012 391.9707 197.99023 C 391.9707 99.200254 311.77023 19 212.99023 19 z M 212.99023 84.939453 C 150.60023 84.939453 99.939453 135.60023 99.939453 197.99023 C 99.939453 238.14585 120.92899 273.43374 152.52148 293.48828 L 155.32617 282.0625 C 128.57739 263.67519 111.01953 232.86792 111.01953 197.99023 C 111.01953 141.71023 156.71023 96.019531 212.99023 96.019531 C 264.78577 96.019531 307.61361 134.73293 314.09766 184.7832 L 325.54688 187.59375 C 320.29046 130.06977 271.87436 84.939453 212.99023 84.939453 z M 212.99023 133.85938 C 177.59023 133.85938 148.85938 162.59023 148.85938 197.99023 C 148.85938 214.51962 155.12868 229.59563 165.41602 240.97266 L 167.27539 233.39648 C 159.67734 223.60739 155.14062 211.32752 155.14062 197.99023 C 155.14062 166.06023 181.06023 140.14062 212.99023 140.14062 C 235.85999 140.14062 255.64587 153.448 265.0293 172.73633 L 272.70117 174.61914 C 263.34896 150.76973 240.13433 133.85938 212.99023 133.85938 z "
     id="use4172" />
  <path
     id="use4200"
     d="m 375.66,397.13 c -21.07,-3.38 -35.22,5.75 -41.8,17.2 -20.36,2.23 -42.89,-3.43 -50.75,31.19 -39.01,-12.49 -38.7,36.15 -61.31,1.35 -23.09,20.11 -39.78,42.34 -45.12,62.24 -14.64,54.53 14.13,94.75 103.62,96.38 89.5,1.63 168.66,22.79 238.41,-48.55 69.75,-71.34 85.54,-194.42 40.58,-236.82 -35.07,-33.06 -86.62,9.99 -143,36.58 -1.9,28.17 -31.15,16.26 -40.63,40.43 z"
     inkscape:connector-curvature="0"
     style="display:inline;fill:#aa8800;fill-opacity:1" />
  <path
     style="display:inline;fill:#d4aa00;fill-opacity:1"
     d="m 415.73,356.97 c 59.38,6.01 76.57,25.74 51.57,59.19 -11.25,0.53 -22.6,13.56 -18.94,36.23 -14.34,0.66 -31.4,17.01 -34.13,34.12 -14.73,-3.4 -36.25,3.37 -45.1,26.06 -19.34,-1.3 -40.51,11.03 -45.49,29.33 -26.97,-13.21 -56.96,4.18 -57.91,15.8 -41.08,-3.35 -56.06,-39.34 -44.93,-107.98 0,0 7.99562,9.58772 19.2,10.55907 4.8788,0.59926 14.21467,-23.06095 43.11,-14.75907 9.54649,-35.233 36.07952,-29.23555 50.75,-31.19 9.83327,-23.90794 30.77186,-21.20132 41.8,-17.2 12.51651,-28.37077 24.33637,-15.91749 35.50279,-25.78116 C 422.32921,361.48517 415.73,356.97 415.73,356.97 Z"
     id="use4553"
     inkscape:connector-curvature="0"
     sodipodi:nodetypes="cccccccccccccc" />
  <path
     style="color:#000000;font-style:normal;font-variant:normal;font-weight:normal;font-stretch:normal;font-size:medium;line-height:normal;font-family:sans-serif;font-variant-ligatures:normal;font-variant-position:normal;font-variant-caps:normal;font-variant-numeric:normal;font-variant-alternates:normal;font-feature-settings:normal;text-indent:0;text-align:start;text-decoration:none;text-decoration-line:none;text-decoration-style:solid;text-decoration-color:#000000;letter-spacing:normal;word-spacing:normal;text-transform:none;writing-mode:lr-tb;direction:ltr;text-orientation:mixed;dominant-baseline:auto;baseline-shift:baseline;text-anchor:start;white-space:normal;shape-padding:0;clip-rule:nonzero;display:inline;overflow:visible;visibility:visible;opacity:1;isolation:auto;mix-blend-mode:normal;color-interpolation:sRGB;color-interpolation-filters:linearRGB;solid-color:#000000;solid-opacity:1;vector-effect:none;fill:#504416;fill-opacity:1;fill-rule:nonzero;stroke:none;stroke-width:13;stroke-linecap:butt;stroke-linejoin:miter;stroke-miterlimit:4;stroke-dasharray:none;stroke-dashoffset:0;stroke-opacity:1;color-rendering:auto;image-rendering:auto;shape-rendering:auto;text-rendering:auto;enable-background:accumulate"
     d="m 530.20117,301.65039 c -11.99873,-0.22278 -24.27385,3.21411 -36.88281,8.375 -25.21792,10.32179 -52.14357,27.7512 -79.80078,40.79492 l -3.45508,1.63086 -0.25781,3.81055 c -0.39758,5.89458 -1.90301,8.57716 -3.97461,10.6914 -2.0716,2.11425 -5.27581,3.73211 -9.46875,5.44336 -7.44504,3.03854 -18.23671,6.8872 -24.56055,17.87696 -19.07818,-1.4842 -33.58623,6.6232 -41.48242,17.75195 -8.75307,0.62522 -18.69994,0.1452 -28.66016,3.61523 -9.67658,3.37123 -18.30689,11.48075 -23.13086,26.12696 -8.04954,-1.45172 -15.01286,-0.65587 -20.63086,1.5293 -7.10165,2.76224 -12.04421,7.23141 -15.71093,10.23632 -3.66672,3.00491 -5.32342,3.68703 -5.84766,3.61328 -0.52424,-0.0737 -3.80858,-1.69275 -9.08789,-9.81836 l -4.07617,-6.27343 -5.64258,4.91406 c -23.70919,20.64928 -41.2243,43.45296 -47.12891,65.45703 -7.69958,28.68061 -3.94636,55.33637 14.3711,74.23633 18.31786,18.90037 49.70259,29.49367 95.4082,30.32617 44.27289,0.80631 86.58514,6.57707 127.28906,3.06641 40.70393,-3.51066 79.92783,-16.79172 115.88672,-53.57031 36.00989,-36.83077 57.83347,-86.53407 65.08008,-132.80079 7.24661,-46.26671 0.35274,-89.67851 -24.6875,-113.29297 h -0.002 c -9.85821,-9.29319 -21.54814,-13.51745 -33.54688,-13.74023 z m -0.24219,12.99805 c 9.29173,0.17252 17.19468,2.96519 24.8711,10.20117 19.91976,18.78554 27.60956,58.11398 20.76367,101.82227 -6.84589,43.70828 -27.79114,91.21537 -61.53125,125.7246 -33.79111,34.56141 -69.02041,46.3702 -107.70898,49.70704 -38.68858,3.33683 -80.70844,-2.2896 -125.93555,-3.11329 -43.78439,-0.7975 -71.52896,-11.12732 -86.30859,-26.37695 -14.77964,-15.24963 -18.0921,-35.96968 -11.15235,-61.81836 4.38442,-16.33894 18.19041,-35.91477 37.80078,-54.16015 4.31694,5.45646 8.52649,8.64919 13.76953,9.38671 6.99576,0.98407 11.94016,-3.18975 15.89844,-6.43359 3.95828,-3.24384 7.66525,-6.41638 12.1836,-8.17383 4.51834,-1.75744 9.93147,-2.4528 18.51953,0.29688 l 6.75,2.16015 1.57031,-6.91211 c 3.61619,-15.92779 9.15614,-20.4892 16.48633,-23.04296 7.33018,-2.55377 17.60321,-1.91695 28.63281,-3.125 l 3.28125,-0.35938 1.64648,-2.86328 c 5.31793,-9.25383 16.32164,-17.03749 35.13477,-14.01953 l 5.16797,0.82812 1.91211,-4.87304 c 3.77771,-9.63159 10.47838,-11.36283 19.5625,-15.07032 4.54206,-1.85374 9.59839,-4.05206 13.84179,-8.38281 3.54034,-3.61321 6.02891,-8.73795 7.10743,-15.06836 27.52857,-13.30161 53.47494,-29.6974 76.02148,-38.92578 11.70979,-4.79286 22.42264,-7.58073 31.71484,-7.4082 z"
     id="use4202"
     inkscape:connector-curvature="0" />
  <path
     style="color:#000000;font-style:normal;font-variant:normal;font-weight:normal;font-stretch:normal;font-size:medium;line-height:normal;font-family:sans-serif;font-variant-ligatures:normal;font-variant-position:normal;font-variant-caps:normal;font-variant-numeric:normal;font-variant-alternates:normal;font-feature-settings:normal;text-indent:0;text-align:start;text-decoration:none;text-decoration-line:none;text-decoration-style:solid;text-decoration-color:#000000;letter-spacing:normal;word-spacing:normal;text-transform:none;writing-mode:lr-tb;direction:ltr;text-orientation:mixed;dominant-baseline:auto;baseline-shift:baseline;text-anchor:start;white-space:normal;shape-padding:0;clip-rule:nonzero;display:inline;overflow:visible;visibility:visible;opacity:1;isolation:auto;mix-blend-mode:normal;color-interpolation:sRGB;color-interpolation-filters:linearRGB;solid-color:#000000;solid-opacity:1;vector-effect:none;fill:#4d4d4d;fill-opacity:1;fill-rule:nonzero;stroke:none;stroke-width:14;stroke-linecap:butt;stroke-linejoin:miter;stroke-miterlimit:4;stroke-dasharray:none;stroke-dashoffset:0;stroke-opacity:1;color-rendering:auto;image-rendering:auto;shape-rendering:auto;text-rendering:auto;enable-background:accumulate"
     d="M 212.99023 175.98242 A 21.991531 21.991531 0 0 0 190.99805 197.97461 A 21.991531 21.991531 0 0 0 206.49219 218.98438 L 206.81055 232.61719 L 222.92578 237.30078 L 218.24805 254.66211 L 235.79883 260.31055 L 231.58008 277.32227 L 248.11328 283.39062 L 243.46289 302.61914 L 250.28516 304.25391 C 250.28516 304.25391 254.94602 305.45456 260.90625 307.09375 C 260.90125 307.11795 260.89603 307.1339 260.89062 307.1582 C 259.48303 313.42234 258.21934 319.99891 257.61523 325.89062 C 257.26146 329.34085 256.91901 332.42046 257.24609 335.49609 C 232.97788 350.36669 220.21305 373.45105 221.08008 402.11328 C 222.00491 432.68651 236.83361 469.32266 264.64453 513.03711 L 268.19141 518.61133 L 273.96094 515.39258 C 275.19777 514.70256 281.26544 511.3208 286.45117 508.43164 C 289.20685 513.51122 292.30257 517.56915 296.28906 520.39453 C 301.96908 524.42018 309.99056 524.65366 316.10742 521.24609 L 316.10742 521.24414 L 316.10938 521.24414 C 319.46834 519.37038 321.85109 515.58067 322.39648 512.19336 C 322.94188 508.80605 322.34738 505.8298 321.50977 502.9375 C 319.83447 497.15291 316.80552 491.3861 314.04102 485.71875 C 311.27652 480.0514 308.81466 474.49457 308.0625 470.87305 C 307.68642 469.06229 307.77148 467.85641 307.88281 467.44727 C 307.98101 467.08648 307.95041 467.15369 308.3125 466.94531 C 308.43817 467.02501 308.9866 467.29308 309.96289 468.44141 C 312.18334 471.05313 315.1062 476.52088 318.03516 482.27734 C 320.96412 488.03381 323.90287 494.08909 328.10938 498.92969 C 330.21262 501.34998 332.74187 503.62104 336.29102 504.81836 C 339.84016 506.01568 344.27675 505.54286 347.73828 503.61328 C 351.16979 501.70043 353.87889 498.28567 354.82227 494.7168 C 355.76564 491.14792 355.31925 487.81149 354.51562 484.74414 C 352.90839 478.60945 349.65632 472.87496 346.73633 467.28125 C 343.81634 461.68754 341.26514 456.25811 340.5957 452.83398 C 340.26098 451.12192 340.38336 450.07779 340.54688 449.59961 C 340.71035 449.12143 340.76505 448.86937 341.92188 448.18555 L 341.92383 448.18555 C 343.07978 447.50187 342.91204 447.73513 342.93164 447.74023 C 342.95124 447.74523 343.62174 448.01277 344.67969 449.21875 C 346.79559 451.63071 349.61509 457.11616 352.46875 462.95703 C 355.32241 468.79791 358.20973 475.03867 362.97266 479.93555 C 365.35412 482.38398 368.43403 484.59128 372.32812 485.40234 C 376.22145 486.21324 380.51004 485.34624 384.22656 483.27539 L 384.22852 483.27344 C 387.9337 481.20864 390.9078 478.06768 392.33594 474.39453 C 393.76439 470.72058 393.65666 466.94955 392.95117 463.60547 C 391.5402 456.9173 387.96438 451.06222 384.64844 445.47461 C 381.3325 439.887 378.20881 434.54579 377.19727 431.31055 C 376.6915 429.69292 376.77686 428.81546 376.78906 428.76758 C 376.80126 428.71968 376.39936 428.96916 377.28711 428.47461 C 378.17485 427.98007 377.88773 428.15888 378.0332 428.20117 C 378.17868 428.24347 378.99321 428.63683 380.11914 429.875 C 382.371 432.35135 385.28123 437.66177 388.01562 443.3418 C 390.75005 449.02182 393.35827 455.01897 396.79297 459.91992 C 398.51032 462.3704 400.4178 464.70941 403.55273 466.35742 C 406.68767 468.00544 411.50788 468.07759 414.88672 466.19531 C 421.15443 462.70371 424.99328 455.40512 424.4375 448.23633 C 424.03129 442.99669 422.05858 437.74489 418.88867 432.07422 C 423.78292 429.34633 429.38122 426.22658 430.50977 425.59961 L 436.0957 422.49609 L 433.51367 416.65039 C 412.93872 370.08676 392.2461 337.75644 370.0957 319.51367 C 349.5777 302.61532 326.55182 298.92293 304.98633 309.00195 C 302.43864 307.04625 299.5007 305.77751 296.22266 304.28125 C 290.73805 301.7778 284.26979 299.49279 277.98438 297.48828 C 277.90618 297.46338 277.85159 297.45253 277.77344 297.42773 C 279.29341 291.76595 280.53906 287.41602 280.53906 287.41602 L 282.46484 281.08594 L 264.6543 274.54883 L 269.06445 256.31055 L 252.5332 250.99023 L 257.08203 232.64648 L 240.01562 227.6875 L 244.35742 211.58008 L 234.03711 204.32422 A 21.991531 21.991531 0 0 0 234.98047 197.97461 A 21.991531 21.991531 0 0 0 212.99023 175.98242 z M 212.99023 189.60742 A 8.3665314 8.3665314 0 0 1 221.35547 197.97461 A 8.3665314 8.3665314 0 0 1 212.99023 206.3418 A 8.3665314 8.3665314 0 0 1 204.62305 197.97461 A 8.3665314 8.3665314 0 0 1 212.99023 189.60742 z M 225.91797 215.73242 L 228.28906 217.39844 L 226.56836 223.78125 L 220.56641 222.03711 L 220.48633 218.62695 A 21.991531 21.991531 0 0 0 225.91797 215.73242 z M 236.37305 241.20703 L 240.25586 242.33594 L 239.17578 246.69141 L 235.23633 245.42383 L 236.37305 241.20703 z M 249.15625 264.60938 L 252.40234 265.6543 L 251.42578 269.69336 L 248.18945 268.50586 L 249.15625 264.60938 z M 261.34375 288.24609 L 265.31836 289.70508 C 264.98641 290.88946 264.71902 292.06175 264.32812 293.51367 C 262.86228 293.11162 261.56081 292.69967 260.34375 292.37891 L 261.34375 288.24609 z M 274.38281 311.04883 C 280.14956 312.90511 285.9745 314.99381 290.4082 317.01758 C 295.01145 319.11873 297.93661 322.28209 297.16797 320.83594 L 300.57227 327.23828 L 306.85156 323.61133 C 325.66225 312.74603 342.09321 314.58808 361.19531 330.32031 C 379.45392 345.35785 398.79163 374.23907 418.03906 416.52148 C 413.06828 419.2919 406.90817 422.7255 405.71094 423.39062 L 399.07227 427.07812 L 403.28711 433.39453 C 408.10979 440.62388 410.24429 446.29715 410.47852 449.31836 C 410.64985 451.52834 410.2749 452.27609 409.26953 453.04688 C 408.92938 452.7156 408.84718 452.72574 408.25781 451.88477 C 406.14813 448.87447 403.46199 443.1545 400.62891 437.26953 C 397.79582 431.38456 394.86408 425.28193 390.47656 420.45703 C 388.28281 418.04458 385.58023 415.81568 381.94141 414.75781 C 378.30259 413.69995 373.96491 414.29868 370.47266 416.24414 C 366.98041 418.18959 364.16338 421.61928 363.22266 425.31055 C 362.28193 429.00181 362.87718 432.42184 363.83594 435.48828 C 365.75346 441.62116 369.38407 447.18425 372.60938 452.61914 C 375.83468 458.05403 378.58636 463.34114 379.25195 466.49609 C 379.58475 468.07357 379.45293 468.89888 379.28906 469.32031 C 379.12521 469.74175 378.94024 470.19469 377.41406 471.04492 L 377.41211 471.04492 C 375.89916 471.88818 375.52206 471.76776 375.18359 471.69727 C 374.84512 471.62677 374.12666 471.32414 373.00781 470.17383 C 370.77012 467.8732 367.85569 462.56163 365.04688 456.8125 C 362.23804 451.06337 359.53286 444.92187 355.20312 439.98633 C 353.03827 437.51856 350.25571 435.18232 346.45898 434.19336 C 342.66226 433.2044 338.31592 434.05344 334.79688 436.13477 C 331.27684 438.21598 328.52678 441.47865 327.29883 445.07031 C 326.07071 448.66244 326.21534 452.24534 326.85547 455.51953 C 328.13572 462.06791 331.34741 468.05347 334.32617 473.75977 C 337.30493 479.46606 340.0877 484.91516 340.97266 488.29297 C 341.41513 489.98187 341.32846 490.98421 341.28711 491.14062 C 341.24581 491.29706 341.62535 490.99457 340.92188 491.38672 C 340.80162 491.45375 340.75952 491.48607 340.70898 491.52148 C 340.53446 491.43676 339.73735 490.96964 338.67578 489.74805 C 336.38321 487.10989 333.42901 481.66127 330.51172 475.92773 C 327.59443 470.1942 324.72002 464.18508 320.62891 459.37305 C 318.58335 456.96703 316.12736 454.68476 312.58203 453.48242 C 309.03671 452.28008 304.55363 452.8489 301.1875 454.86133 C 297.82408 456.87179 295.32057 460.29476 294.375 463.76953 C 293.42931 467.24477 293.70024 470.57326 294.35352 473.71875 C 295.6601 480.00973 298.62848 486.05282 301.45898 491.85547 C 304.28948 497.65812 307.01905 503.22913 308.0625 506.83203 C 308.48028 508.27458 308.46313 508.91907 308.47266 509.34375 C 306.77845 510.19459 306.11656 510.19809 304.38477 508.9707 C 302.33978 507.52135 299.05152 503.26871 295.96484 495.98047 L 292.92383 488.79492 L 286.10938 492.59766 C 284.81331 493.32073 278.2533 496.97466 273.01953 499.89062 C 248.31309 459.87655 235.83353 426.79271 235.07422 401.69141 C 234.27905 375.40464 244.74573 357.62477 268.67969 344.87891 L 275.02148 341.50195 L 271.48047 335.25 C 272.1033 336.34937 271.03428 332.26088 271.54102 327.31836 C 272.0245 322.60306 273.12318 316.74482 274.38281 311.04883 z "
     id="use3947" />
</svg>
